<?xml version="1.0" encoding="UTF-8" standalone="no"?>
<!DOCTYPE svg PUBLIC "-//W3C//DTD SVG 1.1//EN"
 "http://www.w3.org/Graphics/SVG/1.1/DTD/svg11.dtd">
<!-- Generated by graphviz version 7.0.4 (20221203.1631)
 -->
<!-- Pages: 1 -->
<svg width="1107pt" height="260pt"
 viewBox="0.00 0.00 1106.50 260.00" xmlns="http://www.w3.org/2000/svg" xmlns:xlink="http://www.w3.org/1999/xlink">
<g id="graph0" class="graph" transform="scale(1 1) rotate(0) translate(4 256)">
<polygon fill="white" stroke="none" points="-4,4 -4,-256 1102.5,-256 1102.5,4 -4,4"/>
<!-- Ava De&#39;s dad -->
<g id="node1" class="node">
<title>Ava De&#39;s dad</title>
<g id="a_node1"><a xlink:title="nan">
<polygon fill="lightblue" stroke="black" points="550.5,-252 458.5,-252 458.5,-216 550.5,-216 550.5,-252"/>
<text text-anchor="middle" x="504.5" y="-230.3" font-family="Times New Roman,serif" font-size="14.00">Ava De&#39;s dad</text>
</a>
</g>
</g>
<!-- wife -->
<g id="node2" class="node">
<title>wife</title>
<g id="a_node2"><a xlink:title="nan">
<polygon fill="pink" stroke="black" points="622.5,-252 568.5,-252 568.5,-216 622.5,-216 622.5,-252"/>
<text text-anchor="middle" x="595.5" y="-230.3" font-family="Times New Roman,serif" font-size="14.00">wife</text>
</a>
</g>
</g>
<!-- Ava De&#39;s dad&#45;&gt;wife -->
<g id="edge1" class="edge">
<title>Ava De&#39;s dad&#45;&gt;wife</title>
<path fill="none" stroke="black" d="M550.8,-234C556.77,-234 562.72,-234 568.25,-234"/>
</g>
<!-- Ava De -->
<g id="node3" class="node">
<title>Ava De</title>
<g id="a_node3"><a xlink:title="nan">
<polygon fill="pink" stroke="black" points="262,-180 203,-180 203,-144 262,-144 262,-180"/>
<text text-anchor="middle" x="232.5" y="-158.3" font-family="Times New Roman,serif" font-size="14.00">Ava De</text>
</a>
</g>
</g>
<!-- Ava De&#39;s dad&#45;&gt;Ava De -->
<g id="edge2" class="edge">
<title>Ava De&#39;s dad&#45;&gt;Ava De</title>
<path fill="none" stroke="black" d="M458.05,-237C380.36,-237 232.5,-237 232.5,-237 232.5,-237 232.5,-191.67 232.5,-191.67"/>
<polygon fill="black" stroke="black" points="236,-191.67 232.5,-181.67 229,-191.67 236,-191.67"/>
</g>
<!-- Monju mashi -->
<g id="node4" class="node">
<title>Monju mashi</title>
<g id="a_node4"><a xlink:title="nan">
<polygon fill="pink" stroke="black" points="185,-180 96,-180 96,-144 185,-144 185,-180"/>
<text text-anchor="middle" x="140.5" y="-158.3" font-family="Times New Roman,serif" font-size="14.00">Monju mashi</text>
</a>
</g>
</g>
<!-- Ava De&#39;s dad&#45;&gt;Monju mashi -->
<g id="edge3" class="edge">
<title>Ava De&#39;s dad&#45;&gt;Monju mashi</title>
<path fill="none" stroke="black" d="M458.03,-244C359.9,-244 140.5,-244 140.5,-244 140.5,-244 140.5,-191.71 140.5,-191.71"/>
<polygon fill="black" stroke="black" points="144,-191.71 140.5,-181.71 137,-191.71 144,-191.71"/>
</g>
<!-- Sister 1 -->
<g id="node5" class="node">
<title>Sister 1</title>
<g id="a_node5"><a xlink:title="nan">
<polygon fill="pink" stroke="black" points="339,-180 280,-180 280,-144 339,-144 339,-180"/>
<text text-anchor="middle" x="309.5" y="-158.3" font-family="Times New Roman,serif" font-size="14.00">Sister 1</text>
</a>
</g>
</g>
<!-- Ava De&#39;s dad&#45;&gt;Sister 1 -->
<g id="edge4" class="edge">
<title>Ava De&#39;s dad&#45;&gt;Sister 1</title>
<path fill="none" stroke="black" d="M458.29,-230C400.62,-230 309.5,-230 309.5,-230 309.5,-230 309.5,-191.74 309.5,-191.74"/>
<polygon fill="black" stroke="black" points="313,-191.74 309.5,-181.74 306,-191.74 313,-191.74"/>
</g>
<!-- Sister 2 -->
<g id="node6" class="node">
<title>Sister 2</title>
<g id="a_node6"><a xlink:title="nan">
<polygon fill="pink" stroke="black" points="416,-180 357,-180 357,-144 416,-144 416,-180"/>
<text text-anchor="middle" x="386.5" y="-158.3" font-family="Times New Roman,serif" font-size="14.00">Sister 2</text>
</a>
</g>
</g>
<!-- Ava De&#39;s dad&#45;&gt;Sister 2 -->
<g id="edge5" class="edge">
<title>Ava De&#39;s dad&#45;&gt;Sister 2</title>
<path fill="none" stroke="black" d="M458.2,-223C425.14,-223 386.5,-223 386.5,-223 386.5,-223 386.5,-191.82 386.5,-191.82"/>
<polygon fill="black" stroke="black" points="390,-191.82 386.5,-181.82 383,-191.82 390,-191.82"/>
</g>
<!-- Sister 3 -->
<g id="node7" class="node">
<title>Sister 3</title>
<g id="a_node7"><a xlink:title="nan">
<polygon fill="pink" stroke="black" points="493,-180 434,-180 434,-144 493,-144 493,-180"/>
<text text-anchor="middle" x="463.5" y="-158.3" font-family="Times New Roman,serif" font-size="14.00">Sister 3</text>
</a>
</g>
</g>
<!-- Ava De&#39;s dad&#45;&gt;Sister 3 -->
<g id="edge6" class="edge">
<title>Ava De&#39;s dad&#45;&gt;Sister 3</title>
<path fill="none" stroke="black" d="M475.75,-215.83C475.75,-215.83 475.75,-191.93 475.75,-191.93"/>
<polygon fill="black" stroke="black" points="479.25,-191.93 475.75,-181.93 472.25,-191.93 479.25,-191.93"/>
</g>
<!-- Brother 1 -->
<g id="node8" class="node">
<title>Brother 1</title>
<g id="a_node8"><a xlink:title="nan">
<polygon fill="lightblue" stroke="black" points="580,-180 511,-180 511,-144 580,-144 580,-180"/>
<text text-anchor="middle" x="545.5" y="-158.3" font-family="Times New Roman,serif" font-size="14.00">Brother 1</text>
</a>
</g>
</g>
<!-- Ava De&#39;s dad&#45;&gt;Brother 1 -->
<g id="edge7" class="edge">
<title>Ava De&#39;s dad&#45;&gt;Brother 1</title>
<path fill="none" stroke="black" d="M517.58,-215.83C517.58,-215.83 517.58,-191.93 517.58,-191.93"/>
<polygon fill="black" stroke="black" points="521.08,-191.93 517.58,-181.93 514.08,-191.93 521.08,-191.93"/>
</g>
<!-- Brother 2 -->
<g id="node9" class="node">
<title>Brother 2</title>
<g id="a_node9"><a xlink:title="nan">
<polygon fill="lightblue" stroke="black" points="667,-180 598,-180 598,-144 667,-144 667,-180"/>
<text text-anchor="middle" x="632.5" y="-158.3" font-family="Times New Roman,serif" font-size="14.00">Brother 2</text>
</a>
</g>
</g>
<!-- Ava De&#39;s dad&#45;&gt;Brother 2 -->
<g id="edge8" class="edge">
<title>Ava De&#39;s dad&#45;&gt;Brother 2</title>
<path fill="none" stroke="black" d="M524.17,-215.69C524.17,-202.5 524.17,-187 524.17,-187 524.17,-187 610.25,-187 610.25,-187 610.25,-187 610.25,-186.34 610.25,-186.34"/>
<polygon fill="black" stroke="black" points="613.75,-191.95 610.25,-181.95 606.75,-191.95 613.75,-191.95"/>
</g>
<!-- Brother 3 -->
<g id="node10" class="node">
<title>Brother 3</title>
<g id="a_node10"><a xlink:title="nan">
<polygon fill="lightblue" stroke="black" points="754,-180 685,-180 685,-144 754,-144 754,-180"/>
<text text-anchor="middle" x="719.5" y="-158.3" font-family="Times New Roman,serif" font-size="14.00">Brother 3</text>
</a>
</g>
</g>
<!-- Ava De&#39;s dad&#45;&gt;Brother 3 -->
<g id="edge9" class="edge">
<title>Ava De&#39;s dad&#45;&gt;Brother 3</title>
<path fill="none" stroke="black" d="M530.75,-215.87C530.75,-205.29 530.75,-194 530.75,-194 530.75,-194 719.5,-194 719.5,-194 719.5,-194 719.5,-191.76 719.5,-191.76"/>
<polygon fill="black" stroke="black" points="723,-191.76 719.5,-181.76 716,-191.76 723,-191.76"/>
</g>
<!-- Brother 4 -->
<g id="node11" class="node">
<title>Brother 4</title>
<g id="a_node11"><a xlink:title="nan">
<polygon fill="lightblue" stroke="black" points="841,-180 772,-180 772,-144 841,-144 841,-180"/>
<text text-anchor="middle" x="806.5" y="-158.3" font-family="Times New Roman,serif" font-size="14.00">Brother 4</text>
</a>
</g>
</g>
<!-- Ava De&#39;s dad&#45;&gt;Brother 4 -->
<g id="edge10" class="edge">
<title>Ava De&#39;s dad&#45;&gt;Brother 4</title>
<path fill="none" stroke="black" d="M537.33,-215.57C537.33,-208.01 537.33,-201 537.33,-201 537.33,-201 806.5,-201 806.5,-201 806.5,-201 806.5,-191.64 806.5,-191.64"/>
<polygon fill="black" stroke="black" points="810,-191.64 806.5,-181.64 803,-191.64 810,-191.64"/>
</g>
<!-- Brother 5 -->
<g id="node12" class="node">
<title>Brother 5</title>
<g id="a_node12"><a xlink:title="nan">
<polygon fill="lightblue" stroke="black" points="928,-180 859,-180 859,-144 928,-144 928,-180"/>
<text text-anchor="middle" x="893.5" y="-158.3" font-family="Times New Roman,serif" font-size="14.00">Brother 5</text>
</a>
</g>
</g>
<!-- Ava De&#39;s dad&#45;&gt;Brother 5 -->
<g id="edge11" class="edge">
<title>Ava De&#39;s dad&#45;&gt;Brother 5</title>
<path fill="none" stroke="black" d="M543.92,-215.66C543.92,-211.36 543.92,-208 543.92,-208 543.92,-208 893.5,-208 893.5,-208 893.5,-208 893.5,-191.96 893.5,-191.96"/>
<polygon fill="black" stroke="black" points="897,-191.96 893.5,-181.96 890,-191.96 897,-191.96"/>
</g>
<!-- Colonel De -->
<g id="node13" class="node">
<title>Colonel De</title>
<g id="a_node13"><a xlink:title="nan">
<polygon fill="lightblue" stroke="black" points="1026.5,-180 946.5,-180 946.5,-144 1026.5,-144 1026.5,-180"/>
<text text-anchor="middle" x="986.5" y="-158.3" font-family="Times New Roman,serif" font-size="14.00">Colonel De</text>
</a>
</g>
</g>
<!-- Ava De&#45;&gt;Colonel De -->
<g id="edge12" class="edge">
<title>Ava De&#45;&gt;Colonel De</title>
<path fill="none" stroke="black" d="M257.17,-143.66C257.17,-139.36 257.17,-136 257.17,-136 257.17,-136 986.5,-136 986.5,-136 986.5,-136 986.5,-139.36 986.5,-143.66"/>
</g>
<!-- Mama -->
<g id="node15" class="node">
<title>Mama</title>
<g id="a_node15"><a xlink:title="nan">
<polygon fill="lightblue" stroke="black" points="477.5,-108 423.5,-108 423.5,-72 477.5,-72 477.5,-108"/>
<text text-anchor="middle" x="450.5" y="-86.3" font-family="Times New Roman,serif" font-size="14.00">Mama</text>
</a>
</g>
</g>
<!-- Ava De&#45;&gt;Mama -->
<g id="edge14" class="edge">
<title>Ava De&#45;&gt;Mama</title>
<path fill="none" stroke="black" d="M252.33,-143.69C252.33,-130.5 252.33,-115 252.33,-115 252.33,-115 428.75,-115 428.75,-115 428.75,-115 428.75,-114.34 428.75,-114.34"/>
<polygon fill="black" stroke="black" points="432.25,-119.95 428.75,-109.95 425.25,-119.95 432.25,-119.95"/>
</g>
<!-- Nandina -->
<g id="node16" class="node">
<title>Nandina</title>
<g id="a_node16"><a xlink:title="nan">
<polygon fill="pink" stroke="black" points="247.5,-108 185.5,-108 185.5,-72 247.5,-72 247.5,-108"/>
<text text-anchor="middle" x="216.5" y="-86.3" font-family="Times New Roman,serif" font-size="14.00">Nandina</text>
</a>
</g>
</g>
<!-- Ava De&#45;&gt;Nandina -->
<g id="edge15" class="edge">
<title>Ava De&#45;&gt;Nandina</title>
<path fill="none" stroke="black" d="M225.25,-143.83C225.25,-143.83 225.25,-119.93 225.25,-119.93"/>
<polygon fill="black" stroke="black" points="228.75,-119.93 225.25,-109.93 221.75,-119.93 228.75,-119.93"/>
</g>
<!-- Pisho -->
<g id="node14" class="node">
<title>Pisho</title>
<g id="a_node14"><a xlink:title="nan">
<polygon fill="lightblue" stroke="black" points="1098.5,-180 1044.5,-180 1044.5,-144 1098.5,-144 1098.5,-180"/>
<text text-anchor="middle" x="1071.5" y="-158.3" font-family="Times New Roman,serif" font-size="14.00">Pisho</text>
</a>
</g>
</g>
<!-- Monju mashi&#45;&gt;Pisho -->
<g id="edge13" class="edge">
<title>Monju mashi&#45;&gt;Pisho</title>
<path fill="none" stroke="black" d="M176.25,-143.57C176.25,-136.01 176.25,-129 176.25,-129 176.25,-129 1071.5,-129 1071.5,-129 1071.5,-129 1071.5,-136.01 1071.5,-143.57"/>
</g>
<!-- Shorub mama -->
<g id="node17" class="node">
<title>Shorub mama</title>
<g id="a_node17"><a xlink:title="nan">
<polygon fill="lightblue" stroke="black" points="95,-108 0,-108 0,-72 95,-72 95,-108"/>
<text text-anchor="middle" x="47.5" y="-86.3" font-family="Times New Roman,serif" font-size="14.00">Shorub mama</text>
</a>
</g>
</g>
<!-- Monju mashi&#45;&gt;Shorub mama -->
<g id="edge16" class="edge">
<title>Monju mashi&#45;&gt;Shorub mama</title>
<path fill="none" stroke="black" d="M104.75,-143.83C104.75,-122.5 104.75,-90 104.75,-90 104.75,-90 103.8,-90 103.8,-90"/>
<polygon fill="black" stroke="black" points="106.81,-86.5 96.81,-90 106.81,-93.5 106.81,-86.5"/>
</g>
<!-- Babu -->
<g id="node18" class="node">
<title>Babu</title>
<g id="a_node18"><a xlink:title="nan">
<polygon fill="lightblue" stroke="black" points="167.5,-108 113.5,-108 113.5,-72 167.5,-72 167.5,-108"/>
<text text-anchor="middle" x="140.5" y="-86.3" font-family="Times New Roman,serif" font-size="14.00">Babu</text>
</a>
</g>
</g>
<!-- Monju mashi&#45;&gt;Babu -->
<g id="edge17" class="edge">
<title>Monju mashi&#45;&gt;Babu</title>
<path fill="none" stroke="black" d="M140.5,-143.83C140.5,-143.83 140.5,-119.93 140.5,-119.93"/>
<polygon fill="black" stroke="black" points="144,-119.93 140.5,-109.93 137,-119.93 144,-119.93"/>
</g>
<!-- Son 1 -->
<g id="node19" class="node">
<title>Son 1</title>
<g id="a_node19"><a xlink:title="nan">
<polygon fill="lightblue" stroke="black" points="639.5,-108 585.5,-108 585.5,-72 639.5,-72 639.5,-108"/>
<text text-anchor="middle" x="612.5" y="-86.3" font-family="Times New Roman,serif" font-size="14.00">Son 1</text>
</a>
</g>
</g>
<!-- Sister 1&#45;&gt;Son 1 -->
<g id="edge18" class="edge">
<title>Sister 1&#45;&gt;Son 1</title>
<path fill="none" stroke="black" d="M306.75,-143.87C306.75,-133.29 306.75,-122 306.75,-122 306.75,-122 591.75,-122 591.75,-122 591.75,-122 591.75,-119.76 591.75,-119.76"/>
<polygon fill="black" stroke="black" points="595.25,-119.76 591.75,-109.76 588.25,-119.76 595.25,-119.76"/>
</g>
<!-- Suchanda -->
<g id="node23" class="node">
<title>Suchanda</title>
<g id="a_node23"><a xlink:title="nan">
<polygon fill="pink" stroke="black" points="567,-108 496,-108 496,-72 567,-72 567,-108"/>
<text text-anchor="middle" x="531.5" y="-86.3" font-family="Times New Roman,serif" font-size="14.00">Suchanda</text>
</a>
</g>
</g>
<!-- Mama&#45;&gt;Suchanda -->
<g id="edge22" class="edge">
<title>Mama&#45;&gt;Suchanda</title>
<path fill="none" stroke="black" d="M477.92,-90C483.61,-90 489.69,-90 495.63,-90"/>
</g>
<!-- Robin -->
<g id="node26" class="node">
<title>Robin</title>
<g id="a_node26"><a xlink:title="nan">
<polygon fill="lightblue" stroke="black" points="428.5,-36 374.5,-36 374.5,0 428.5,0 428.5,-36"/>
<text text-anchor="middle" x="401.5" y="-14.3" font-family="Times New Roman,serif" font-size="14.00">Robin</text>
</a>
</g>
</g>
<!-- Mama&#45;&gt;Robin -->
<g id="edge25" class="edge">
<title>Mama&#45;&gt;Robin</title>
<path fill="none" stroke="black" d="M423.04,-90C421.02,-90 419.75,-90 419.75,-90 419.75,-90 419.75,-47.68 419.75,-47.68"/>
<polygon fill="black" stroke="black" points="423.25,-47.68 419.75,-37.68 416.25,-47.68 423.25,-47.68"/>
</g>
<!-- Romi -->
<g id="node27" class="node">
<title>Romi</title>
<g id="a_node27"><a xlink:title="nan">
<polygon fill="pink" stroke="black" points="500.5,-36 446.5,-36 446.5,0 500.5,0 500.5,-36"/>
<text text-anchor="middle" x="473.5" y="-14.3" font-family="Times New Roman,serif" font-size="14.00">Romi</text>
</a>
</g>
</g>
<!-- Mama&#45;&gt;Romi -->
<g id="edge26" class="edge">
<title>Mama&#45;&gt;Romi</title>
<path fill="none" stroke="black" d="M462,-71.83C462,-71.83 462,-47.93 462,-47.93"/>
<polygon fill="black" stroke="black" points="465.5,-47.93 462,-37.93 458.5,-47.93 465.5,-47.93"/>
</g>
<!-- Shantanu -->
<g id="node20" class="node">
<title>Shantanu</title>
<g id="a_node20"><a xlink:title="nan">
<polygon fill="lightblue" stroke="black" points="333.5,-108 265.5,-108 265.5,-72 333.5,-72 333.5,-108"/>
<text text-anchor="middle" x="299.5" y="-86.3" font-family="Times New Roman,serif" font-size="14.00">Shantanu</text>
</a>
</g>
</g>
<!-- Nandina&#45;&gt;Shantanu -->
<g id="edge19" class="edge">
<title>Nandina&#45;&gt;Shantanu</title>
<path fill="none" stroke="black" d="M247.88,-90C253.48,-90 259.34,-90 265.02,-90"/>
</g>
<!-- Natalia -->
<g id="node21" class="node">
<title>Natalia</title>
<g id="a_node21"><a xlink:title="nan">
<polygon fill="pink" stroke="black" points="405.5,-108 351.5,-108 351.5,-72 405.5,-72 405.5,-108"/>
<text text-anchor="middle" x="378.5" y="-86.3" font-family="Times New Roman,serif" font-size="14.00">Natalia</text>
</a>
</g>
</g>
<!-- Babu&#45;&gt;Natalia -->
<g id="edge20" class="edge">
<title>Babu&#45;&gt;Natalia</title>
<path fill="none" stroke="black" d="M140.5,-71.58C140.5,-62.72 140.5,-54 140.5,-54 140.5,-54 363,-54 363,-54 363,-54 363,-62.72 363,-71.58"/>
</g>
<!-- Wife 1 -->
<g id="node22" class="node">
<title>Wife 1</title>
<g id="a_node22"><a xlink:title="nan">
<polygon fill="pink" stroke="black" points="711.5,-108 657.5,-108 657.5,-72 711.5,-72 711.5,-108"/>
<text text-anchor="middle" x="684.5" y="-86.3" font-family="Times New Roman,serif" font-size="14.00">Wife 1</text>
</a>
</g>
</g>
<!-- Son 1&#45;&gt;Wife 1 -->
<g id="edge21" class="edge">
<title>Son 1&#45;&gt;Wife 1</title>
<path fill="none" stroke="black" d="M639.72,-90C645.45,-90 651.51,-90 657.24,-90"/>
</g>
<!-- Mohona -->
<g id="node24" class="node">
<title>Mohona</title>
<g id="a_node24"><a xlink:title="nan">
<polygon fill="pink" stroke="black" points="605,-36 542,-36 542,0 605,0 605,-36"/>
<text text-anchor="middle" x="573.5" y="-14.3" font-family="Times New Roman,serif" font-size="14.00">Mohona</text>
</a>
</g>
</g>
<!-- Son 1&#45;&gt;Mohona -->
<g id="edge23" class="edge">
<title>Son 1&#45;&gt;Mohona</title>
<path fill="none" stroke="black" d="M595.25,-71.83C595.25,-71.83 595.25,-47.93 595.25,-47.93"/>
<polygon fill="black" stroke="black" points="598.75,-47.93 595.25,-37.93 591.75,-47.93 598.75,-47.93"/>
</g>
<!-- Oiyun -->
<g id="node25" class="node">
<title>Oiyun</title>
<g id="a_node25"><a xlink:title="nan">
<polygon fill="lightblue" stroke="black" points="677.5,-36 623.5,-36 623.5,0 677.5,0 677.5,-36"/>
<text text-anchor="middle" x="650.5" y="-14.3" font-family="Times New Roman,serif" font-size="14.00">Oiyun</text>
</a>
</g>
</g>
<!-- Son 1&#45;&gt;Oiyun -->
<g id="edge24" class="edge">
<title>Son 1&#45;&gt;Oiyun</title>
<path fill="none" stroke="black" d="M631.5,-71.83C631.5,-71.83 631.5,-47.93 631.5,-47.93"/>
<polygon fill="black" stroke="black" points="635,-47.93 631.5,-37.93 628,-47.93 635,-47.93"/>
</g>
<!-- Rohan -->
<g id="node28" class="node">
<title>Rohan</title>
<g id="a_node28"><a xlink:title="nan">
<polygon fill="lightblue" stroke="black" points="269.5,-36 215.5,-36 215.5,0 269.5,0 269.5,-36"/>
<text text-anchor="middle" x="242.5" y="-14.3" font-family="Times New Roman,serif" font-size="14.00">Rohan</text>
</a>
</g>
</g>
<!-- Shantanu&#45;&gt;Rohan -->
<g id="edge27" class="edge">
<title>Shantanu&#45;&gt;Rohan</title>
<path fill="none" stroke="black" d="M278.5,-71.83C278.5,-50.5 278.5,-18 278.5,-18 278.5,-18 277.63,-18 277.63,-18"/>
<polygon fill="black" stroke="black" points="281.3,-14.5 271.3,-18 281.3,-21.5 281.3,-14.5"/>
</g>
<!-- Ritika -->
<g id="node29" class="node">
<title>Ritika</title>
<g id="a_node29"><a xlink:title="nan">
<polygon fill="pink" stroke="black" points="341.5,-36 287.5,-36 287.5,0 341.5,0 341.5,-36"/>
<text text-anchor="middle" x="314.5" y="-14.3" font-family="Times New Roman,serif" font-size="14.00">Ritika</text>
</a>
</g>
</g>
<!-- Shantanu&#45;&gt;Ritika -->
<g id="edge28" class="edge">
<title>Shantanu&#45;&gt;Ritika</title>
<path fill="none" stroke="black" d="M310.5,-71.83C310.5,-71.83 310.5,-47.93 310.5,-47.93"/>
<polygon fill="black" stroke="black" points="314,-47.93 310.5,-37.93 307,-47.93 314,-47.93"/>
</g>
</g>
</svg>
